<svg width="35" height="35" viewBox="0 0 35 35" fill="none" xmlns="http://www.w3.org/2000/svg">
<path d="M29.0772 18.8582C29.0772 22.03 27.454 23.9238 24.7352 23.9238H17.6985C17.5881 23.9238 17.4985 23.8343 17.4985 23.7238V22.6765C17.4985 22.566 17.5881 22.4765 17.6985 22.4765H24.7352C27.1276 22.4765 27.6299 20.5088 27.6299 18.8582C27.6299 17.2075 27.1276 15.2399 24.7352 15.2399H8.15604H10.5485L6.11848 15.208C6.00859 15.2072 5.91992 15.1179 5.91992 15.008V13.9166C5.91992 13.8589 5.94481 13.804 5.98821 13.7661L8.91146 11.2077C8.99462 11.1349 9.12105 11.1434 9.19377 11.2266L9.88293 12.0153C9.95556 12.0984 9.94712 12.2246 9.86406 12.2973L8.55642 13.442C8.41748 13.5637 8.50351 13.7925 8.68816 13.7925H24.7352C27.454 13.7925 29.0772 15.6864 29.0772 18.8582Z" fill="black"/>
</svg>
