<svg width="35" height="35" viewBox="0 0 35 35" fill="none" xmlns="http://www.w3.org/2000/svg">
<path fill-rule="evenodd" clip-rule="evenodd" d="M22.1731 29.1619L28.6792 23.0804C28.8497 22.9209 28.9468 22.6978 28.9468 22.464V10.3799C28.9468 8.69287 27.5748 7.32084 25.8877 7.32084H24.3557V6.45457C24.3557 5.98863 23.9779 5.61084 23.512 5.61084C23.046 5.61084 22.6683 5.98864 22.6683 6.45457V7.3209H12.3308V6.45457C12.3308 5.98864 11.953 5.61084 11.487 5.61084C11.0211 5.61084 10.6433 5.98864 10.6433 6.45457V7.3209H9.11128C7.42427 7.3209 6.05225 8.69293 6.05225 10.3799V26.3301C6.05225 28.0172 7.42427 29.3892 9.11128 29.3892H21.597C21.8108 29.3892 22.0168 29.308 22.1731 29.1619ZM21.8505 29.0379C21.7728 29.0778 21.686 29.0991 21.5972 29.0991H9.11157C7.58466 29.0991 6.34242 27.8569 6.34242 26.33V10.3798C6.34242 9.31072 6.9514 8.38119 7.84067 7.91989C6.95124 8.38114 6.34214 9.31075 6.34214 10.3799V26.3301C6.34214 27.8571 7.58438 29.0993 9.11128 29.0993H21.597C21.6859 29.0993 21.7727 29.0779 21.8505 29.0379ZM10.9332 7.61065H10.9335V6.45442C10.9335 6.24064 11.0547 6.05511 11.2321 5.9628C11.0545 6.05506 10.9332 6.24067 10.9332 6.45457V7.61065ZM22.9582 7.61065H22.9584V6.45442C22.9584 6.24064 23.0796 6.05511 23.257 5.9628C23.0795 6.05506 22.9582 6.24067 22.9582 6.45457V7.61065ZM7.7397 26.3301V15.0675H27.2593V21.6426H23.1545C21.7729 21.6426 20.6493 22.7662 20.6493 24.1478V27.7017H9.11128C8.35525 27.7017 7.7397 27.0862 7.7397 26.3301ZM23.1545 23.0401H26.6757L22.0472 27.3665V27.3667L26.676 23.04H23.1548C22.9908 23.04 22.835 23.0758 22.6948 23.1401C22.8349 23.0759 22.9906 23.0401 23.1545 23.0401ZM23.1545 23.33H25.941L22.3368 26.699V24.1478C22.3368 23.6971 22.7039 23.33 23.1545 23.33ZM9.11128 9.00829H10.6433V10.376C10.6433 10.8419 11.0211 11.2197 11.487 11.2197C11.953 11.2197 12.3308 10.8419 12.3308 10.376V9.00829H22.6682V10.376C22.6682 10.8419 23.046 11.2197 23.5119 11.2197C23.9779 11.2197 24.3557 10.8419 24.3557 10.376V9.00829H25.8877C26.6437 9.00829 27.2593 9.62384 27.2593 10.3799V13.38H7.7397V10.3799C7.7397 9.62384 8.35525 9.00829 9.11128 9.00829ZM7.45008 14.7776V14.7775H17.4998H27.5495V21.9323H27.5492V14.7776H7.45008ZM20.9392 27.9915H20.9395V24.1476C20.9395 23.2876 21.4321 22.5405 22.15 22.1736C21.432 22.5404 20.9392 23.2877 20.9392 24.1478V27.9915ZM8.35121 8.90267C8.5791 8.78493 8.83757 8.7184 9.11128 8.7184H10.9332V10.376C10.9332 10.6818 11.1812 10.9298 11.487 10.9298C11.5791 10.9298 11.6659 10.9074 11.7423 10.8676C11.666 10.9073 11.5793 10.9297 11.4873 10.9297C11.1815 10.9297 10.9335 10.6817 10.9335 10.3759V8.71825H9.11157C8.83774 8.71825 8.57917 8.78484 8.35121 8.90267ZM12.0412 8.7184H22.9581V10.376C22.9581 10.6818 23.2061 10.9298 23.5119 10.9298C23.604 10.9298 23.6908 10.9074 23.7672 10.8676C23.6908 10.9073 23.6041 10.9297 23.5122 10.9297C23.2064 10.9297 22.9584 10.6817 22.9584 10.3759V8.71825H12.0412V8.7184ZM24.066 8.7184V8.71825H25.888C26.8041 8.71825 27.5494 9.46359 27.5494 10.3797V13.6698H27.5492V10.3799C27.5492 9.46374 26.8038 8.7184 25.8877 8.7184H24.066Z" fill="black"/>
</svg>
