<svg width="35" height="35" viewBox="0 0 35 35" fill="none" xmlns="http://www.w3.org/2000/svg">
<path d="M9.80273 23.5919C9.80273 24.6453 10.6598 25.5023 11.7132 25.5023H20.327C20.4239 25.5023 20.5172 25.4656 20.5879 25.3994L25.0765 21.2038C25.1538 21.1315 25.1977 21.0305 25.1977 20.9247V12.5878C25.1977 11.5344 24.3406 10.6774 23.2872 10.6774H22.0303V9.87977C22.0303 9.66878 21.8592 9.49768 21.6482 9.49768C21.4372 9.49768 21.2661 9.66878 21.2661 9.87977V10.6774H13.7343V9.87977C13.7343 9.66878 13.5632 9.49768 13.3522 9.49768C13.1412 9.49768 12.9701 9.66878 12.9701 9.87977V10.6774H11.7132C10.6598 10.6774 9.80273 11.5345 9.80273 12.5879V23.5919ZM10.5669 23.5919V15.6218H17.5002H24.4335V20.558H21.4016C20.5589 20.558 19.8733 21.2436 19.8733 22.0863V24.7382H11.7132C11.0811 24.7382 10.5669 24.224 10.5669 23.5919ZM23.8309 21.3221L20.6374 24.3071V22.0863C20.6374 21.6649 20.9802 21.3221 21.4016 21.3221H23.8309ZM11.7132 11.4416H12.9701V12.5852C12.9701 12.7962 13.1412 12.9673 13.3522 12.9673C13.5632 12.9673 13.7343 12.7962 13.7343 12.5852V11.4416H21.2661V12.5852C21.2661 12.7962 21.4372 12.9673 21.6482 12.9673C21.8591 12.9673 22.0302 12.7962 22.0302 12.5852V11.4416H23.2872C23.9192 11.4416 24.4334 11.9558 24.4334 12.5878V14.8576H10.5669V12.5878C10.5669 11.9558 11.0811 11.4416 11.7132 11.4416Z" fill="black"/>
<path fill-rule="evenodd" clip-rule="evenodd" d="M25.2119 21.3499L20.7233 25.5454C20.6155 25.6462 20.4734 25.7023 20.3258 25.7023H11.712C10.5481 25.7023 9.60156 24.7557 9.60156 23.5918V12.5878C9.60156 11.4239 10.5481 10.4774 11.712 10.4774H12.7689V9.87969C12.7689 9.55825 13.0296 9.29761 13.351 9.29761C13.6725 9.29761 13.9331 9.55825 13.9331 9.87969V10.4774H21.0649V9.87969C21.0649 9.55825 21.3256 9.29761 21.647 9.29761C21.9685 9.29761 22.2291 9.55825 22.2291 9.87969V10.4773H23.2861C24.4499 10.4773 25.3965 11.4239 25.3965 12.5878V20.9246C25.3965 21.0859 25.3295 21.2398 25.2119 21.3499ZM25.0753 21.2038L20.5868 25.3993C20.516 25.4655 20.4227 25.5023 20.3258 25.5023H11.712C10.6586 25.5023 9.80156 24.6453 9.80156 23.5918V12.5878C9.80156 11.5344 10.6586 10.6774 11.712 10.6774H12.9689V9.87969C12.9689 9.66871 13.14 9.49761 13.351 9.49761C13.562 9.49761 13.7331 9.66871 13.7331 9.87969V10.6774H21.2649V9.87969C21.2649 9.66871 21.436 9.49761 21.647 9.49761C21.858 9.49761 22.0291 9.66871 22.0291 9.87969V10.6773H23.2861C24.3395 10.6773 25.1965 11.5344 25.1965 12.5878V20.9246C25.1965 21.0305 25.1526 21.1315 25.0753 21.2038ZM10.7657 15.8218V23.5918C10.7657 24.1134 11.1904 24.5381 11.712 24.5381H19.6721V22.0862C19.6721 21.133 20.4472 20.3579 21.4004 20.3579H24.2323V15.8218H10.7657ZM23.8297 21.3221H21.4004C20.9791 21.3221 20.6363 21.6649 20.6363 22.0862V24.307L23.8297 21.3221ZM23.3228 21.5221H21.4004C21.0895 21.5221 20.8363 21.7753 20.8363 22.0862V23.8463L23.3228 21.5221ZM12.7689 11.6415H11.712C11.1904 11.6415 10.7657 12.0662 10.7657 12.5878V14.6575H24.2323V12.5878C24.2323 12.0662 23.8076 11.6415 23.286 11.6415H22.2291V12.5851C22.2291 12.9065 21.9684 13.1672 21.647 13.1672C21.3255 13.1672 21.0649 12.9065 21.0649 12.5851V11.6415H13.9331V12.5851C13.9331 12.9065 13.6725 13.1672 13.351 13.1672C13.0296 13.1672 12.7689 12.9065 12.7689 12.5851V11.6415ZM10.5657 23.5918C10.5657 24.2239 11.0799 24.7381 11.712 24.7381H19.8721V22.0862C19.8721 21.2435 20.5577 20.5579 21.4004 20.5579H24.4323V15.6218H10.5657V23.5918ZM11.712 11.4415C11.0799 11.4415 10.5657 11.9557 10.5657 12.5878V14.8575H24.4323V12.5878C24.4323 11.9557 23.9181 11.4415 23.286 11.4415H22.0291V12.5851C22.0291 12.7961 21.858 12.9672 21.647 12.9672C21.436 12.9672 21.2649 12.7961 21.2649 12.5851V11.4415H13.7331V12.5851C13.7331 12.7961 13.562 12.9672 13.351 12.9672C13.14 12.9672 12.9689 12.7961 12.9689 12.5851V11.4415H11.712Z" fill="black"/>
</svg>
