<svg width="35" height="35" viewBox="0 0 35 35" fill="none" xmlns="http://www.w3.org/2000/svg">
<path d="M18.6256 10.4596C14.1219 10.4596 10.459 14.1225 10.459 18.6263C10.459 23.13 14.1219 26.7929 18.6256 26.7929C23.1294 26.7929 26.7923 23.13 26.7923 18.6263C26.7923 14.1225 23.1294 10.4596 18.6256 10.4596ZM18.6256 11.5732C22.5275 11.5732 25.6787 14.7244 25.6787 18.6263C25.6787 22.5281 22.5275 25.6793 18.6256 25.6793C14.7238 25.6793 11.5726 22.5281 11.5726 18.6263C11.5726 14.7244 14.7238 11.5732 18.6256 11.5732ZM18.6256 12.6869C18.3181 12.6869 18.0688 12.9362 18.0688 13.2437V18.6263C18.0688 18.8322 18.181 19.0114 18.3472 19.1077L22.6858 21.6133C22.9521 21.7671 23.2919 21.6767 23.4456 21.4103C23.5994 21.144 23.5089 20.8043 23.2426 20.6505L19.1825 18.3073V13.2437C19.1825 12.9362 18.9332 12.6869 18.6256 12.6869Z" fill="black"/>
<path fill-rule="evenodd" clip-rule="evenodd" d="M18.2976 19.1942L18.2975 19.1941C18.1019 19.0808 17.9692 18.8695 17.9692 18.6262V13.2436C17.9692 12.8808 18.2633 12.5868 18.626 12.5868C18.9888 12.5868 19.2829 12.8808 19.2829 13.2436V18.2494L23.293 20.5638L23.293 20.5638C23.6073 20.7453 23.7139 21.1463 23.5326 21.4602C23.3511 21.7746 22.9501 21.8811 22.6362 21.6998L22.6362 21.6998L18.2976 19.1942ZM19.1829 18.3072V13.2436C19.1829 12.9361 18.9336 12.6868 18.626 12.6868C18.3185 12.6868 18.0692 12.9361 18.0692 13.2436V18.6262C18.0692 18.8321 18.1814 19.0113 18.3476 19.1076L22.6862 21.6132C22.9525 21.767 23.2922 21.6766 23.446 21.4103C23.5998 21.1439 23.5093 20.8042 23.243 20.6504L19.1829 18.3072ZM10.3594 18.6262C10.3594 14.0672 14.0671 10.3595 18.626 10.3595C23.185 10.3595 26.8927 14.0672 26.8927 18.6262C26.8927 23.1851 23.185 26.8928 18.626 26.8928C14.0671 26.8928 10.3594 23.1851 10.3594 18.6262ZM25.5791 18.6262C25.5791 14.7795 22.4727 11.6731 18.626 11.6731C14.7794 11.6731 11.673 14.7795 11.673 18.6262C11.673 22.4728 14.7794 25.5792 18.626 25.5792C22.4727 25.5792 25.5791 22.4728 25.5791 18.6262ZM10.4594 18.6262C10.4594 14.1224 14.1223 10.4595 18.626 10.4595C23.1297 10.4595 26.7927 14.1224 26.7927 18.6262C26.7927 23.1299 23.1297 26.7928 18.626 26.7928C14.1223 26.7928 10.4594 23.1299 10.4594 18.6262ZM25.6791 18.6262C25.6791 14.7243 22.5279 11.5731 18.626 11.5731C14.7242 11.5731 11.573 14.7243 11.573 18.6262C11.573 22.528 14.7242 25.6792 18.626 25.6792C22.5279 25.6792 25.6791 22.528 25.6791 18.6262Z" fill="black"/>
</svg>
