<svg width="35" height="35" viewBox="0 0 35 35" fill="none" xmlns="http://www.w3.org/2000/svg">
<path fill-rule="evenodd" clip-rule="evenodd" d="M17.0322 18.3086L17.0324 18.3087L23.2107 21.8769C23.6578 22.1351 24.2288 21.9833 24.4872 21.5357C24.7454 21.0886 24.5936 20.5176 24.146 20.2591L24.146 20.2591L18.4354 16.9633V9.83484C18.4354 9.31829 18.0167 8.89951 17.5001 8.89951C16.9835 8.89951 16.5648 9.31829 16.5648 9.83484V17.4998C16.5648 17.8463 16.7538 18.1472 17.0322 18.3086ZM16.7995 9.4631C16.7406 9.57398 16.7072 9.70051 16.7072 9.83484V17.4998C16.7072 17.7931 16.867 18.0482 17.1036 18.1854L23.2819 21.7536C23.6611 21.9726 24.145 21.8438 24.3639 21.4645C24.364 21.4644 24.364 21.4643 24.364 21.4642C24.1451 21.8435 23.6612 21.9723 23.282 21.7533L17.1038 18.1852C16.8671 18.048 16.7073 17.7928 16.7073 17.4996V9.83458C16.7073 9.70035 16.7407 9.57391 16.7995 9.4631ZM17.5001 5.72778C11.008 5.72778 5.72803 11.0077 5.72803 17.4998C5.72803 23.9919 11.008 29.2719 17.5001 29.2719C23.9922 29.2719 29.2722 23.9919 29.2722 17.4998C29.2722 11.0077 23.9922 5.72778 17.5001 5.72778ZM17.5001 7.59845C22.9778 7.59845 27.4015 12.0221 27.4015 17.4998C27.4015 22.9776 22.9778 27.4012 17.5001 27.4012C12.0224 27.4012 7.5987 22.9776 7.5987 17.4998C7.5987 12.0221 12.0224 7.59845 17.5001 7.59845ZM7.23017 12.0457C6.36249 13.6732 5.87043 15.53 5.87043 17.4998C5.87043 23.9133 11.0866 29.1295 17.5001 29.1295C21.9093 29.1295 25.7527 26.664 27.7242 23.039C25.7527 26.6639 21.9094 29.1292 17.5002 29.1292C11.0868 29.1292 5.87057 23.913 5.87057 17.4996C5.87057 15.5299 6.36258 13.6731 7.23017 12.0457ZM17.5001 7.45605C23.0565 7.45605 27.5439 11.9434 27.5439 17.4998C27.5439 19.0626 27.1889 20.5408 26.555 21.8583C27.189 20.5407 27.544 19.0624 27.544 17.4996C27.544 11.9432 23.0566 7.45579 17.5002 7.45579C13.6503 7.45579 10.3136 9.6101 8.6272 12.7817C10.3136 9.61025 13.6503 7.45605 17.5001 7.45605Z" fill="black"/>
</svg>
