<svg width="35" height="35" viewBox="0 0 35 35" fill="none" xmlns="http://www.w3.org/2000/svg">
<path d="M5.91892 18.8583C5.91892 22.0301 7.5421 23.9239 10.2609 23.9239H17.2975C17.408 23.9239 17.4975 23.8344 17.4975 23.7239V22.6766C17.4975 22.5662 17.408 22.4766 17.2975 22.4766H10.2609C7.86847 22.4766 7.36624 20.509 7.36624 18.8583C7.36624 17.2076 7.86847 15.24 10.2609 15.24H26.84H24.4475L28.8776 15.2081C28.9875 15.2073 29.0762 15.118 29.0762 15.0081V13.9167C29.0762 13.859 29.0513 13.8042 29.0079 13.7662L26.0846 11.2078C26.0015 11.135 25.875 11.1435 25.8023 11.2267L25.1132 12.0154C25.0405 12.0985 25.049 12.2248 25.132 12.2975L26.4397 13.4422C26.5786 13.5638 26.4926 13.7926 26.3079 13.7926H10.2609C7.5421 13.7926 5.91892 15.6865 5.91892 18.8583Z" fill="black"/>
</svg>
