<?xml version="1.0" encoding="UTF-8"?>
<svg width="102px" height="102px" viewBox="0 0 102 102" version="1.1" xmlns="http://www.w3.org/2000/svg" xmlns:xlink="http://www.w3.org/1999/xlink">
    <!-- Generator: sketchtool 42 (36781) - http://www.bohemiancoding.com/sketch -->
    <title>A0B10579-B25F-4359-A4B9-3BF19826B18C</title>
    <desc>Created with sketchtool.</desc>
    <defs></defs>
    <g id="Page-1" stroke="none" stroke-width="1" fill="none" fill-rule="evenodd">
        <g id="confirm_mail" transform="translate(-137.000000, -239.000000)">
            <g id="ic_email" transform="translate(138.000000, 240.000000)">
                <path d="M50,99.9974481 C77.6144541,99.9974481 100,77.6119022 100,49.9974481 C100,22.3855459 77.6144541,0 50,0 C22.3855459,0 0,22.3855459 0,49.9974481 C0,77.6119022 22.3855459,99.9974481 50,99.9974481 L50,99.9974481 Z" id="Stroke-1" stroke="#168CCC"></path>
                <path d="M63.7142857,35.7142857 L36.2857143,35.7142857 C34.4,35.7142857 32.8742857,37.2571429 32.8742857,39.1428571 L32.8571429,59.7142857 C32.8571429,61.6 34.4,63.1428571 36.2857143,63.1428571 L63.7142857,63.1428571 C65.6,63.1428571 67.1428571,61.6 67.1428571,59.7142857 L67.1428571,39.1428571 C67.1428571,37.2571429 65.6,35.7142857 63.7142857,35.7142857 L63.7142857,35.7142857 Z M63.7142857,42.5714286 L50,51.1428571 L36.2857143,42.5714286 L36.2857143,39.1428571 L50,47.7142857 L63.7142857,39.1428571 L63.7142857,42.5714286 L63.7142857,42.5714286 Z" id="Shape" fill="#168CCC"></path>
            </g>
        </g>
    </g>
</svg>